<?xml version="1.0" encoding="UTF-8" standalone="no"?>
<!-- Created with Inkscape (http://www.inkscape.org/) -->

<svg
   xmlns:dc="http://purl.org/dc/elements/1.1/"
   xmlns:cc="http://creativecommons.org/ns#"
   xmlns:rdf="http://www.w3.org/1999/02/22-rdf-syntax-ns#"
   xmlns:svg="http://www.w3.org/2000/svg"
   xmlns="http://www.w3.org/2000/svg"
   xmlns:sodipodi="http://sodipodi.sourceforge.net/DTD/sodipodi-0.dtd"
   xmlns:inkscape="http://www.inkscape.org/namespaces/inkscape"
   width="35.975964mm"
   height="19.61528mm"
   viewBox="0 0 35.975964 19.61528"
   version="1.1"
   id="svg1938"
   inkscape:version="0.92.4 (5da689c313, 2019-01-14)"
   sodipodi:docname="logo-inline.svg">
  <defs
     id="defs1932" />
  <sodipodi:namedview
     id="base"
     pagecolor="#ffffff"
     bordercolor="#666666"
     borderopacity="1.0"
     inkscape:pageopacity="0.0"
     inkscape:pageshadow="2"
     inkscape:zoom="2.8"
     inkscape:cx="46.876145"
     inkscape:cy="32.346162"
     inkscape:document-units="mm"
     inkscape:current-layer="layer1"
     showgrid="false"
     fit-margin-top="0"
     fit-margin-left="0"
     fit-margin-right="0"
     fit-margin-bottom="0"
     inkscape:window-width="2560"
     inkscape:window-height="1377"
     inkscape:window-x="1672"
     inkscape:window-y="-8"
     inkscape:window-maximized="1" />
  <metadata
     id="metadata1935">
    <rdf:RDF>
      <cc:Work
         rdf:about="">
        <dc:format>image/svg+xml</dc:format>
        <dc:type
           rdf:resource="http://purl.org/dc/dcmitype/StillImage" />
        <dc:title></dc:title>
      </cc:Work>
    </rdf:RDF>
  </metadata>
  <g
     inkscape:label="Vrstva 1"
     inkscape:groupmode="layer"
     id="layer1"
     transform="translate(-206.23476,-129.29752)">
    <g
       id="g2577">
      <path
         id="path4518-4-0-3-1-6-5-3-5-0-9"
         d="m 223.08881,143.93203 -8.36039,4.82687 -8.36038,-4.82687 0,-9.65374 8.36038,-4.82687 8.36039,4.82687 z"
         style="opacity:1;fill:#03000f;fill-opacity:1;stroke:#000000;stroke-width:0.26656276;stroke-linecap:square;stroke-linejoin:miter;stroke-miterlimit:2.29999995;stroke-dasharray:none;stroke-dashoffset:0;stroke-opacity:1;paint-order:normal" />
      <path
         id="path4518-9-6-01-5-8-5-1-5-5-1-3"
         d="m 242.07744,143.93203 -8.36038,4.82687 -8.36039,-4.82687 0,-9.65374 8.36039,-4.82687 8.36038,4.82687 z"
         style="opacity:1;fill:#03000f;fill-opacity:1;stroke:#000000;stroke-width:0.26656276;stroke-linecap:square;stroke-linejoin:miter;stroke-miterlimit:2.29999995;stroke-dasharray:none;stroke-dashoffset:0;stroke-opacity:1;paint-order:normal" />
      <g
         id="flowRoot4535-6-3-5-6-9-4-0-7-9-8-34"
         style="font-style:normal;font-variant:normal;font-weight:normal;font-stretch:normal;font-size:146.66667175px;line-height:1.25;font-family:'Archivo Narrow';-inkscape-font-specification:'Archivo Narrow';letter-spacing:0px;word-spacing:0px;fill:#ffffff;fill-opacity:1;stroke:none"
         transform="matrix(0.10887855,0,0,0.10887855,216.86217,115.66025)"
         aria-label="B">
        <path
           id="path2560"
           style="font-style:normal;font-variant:normal;font-weight:bold;font-stretch:normal;font-size:146.66667175px;font-family:'Archivo Narrow';-inkscape-font-specification:'Archivo Narrow Bold';fill:#ffffff;fill-opacity:1"
           d="M 118.28438,265.63954 V 165.02621 h 43.26666 q 7.92,0 14.08,3.22666 6.30667,3.08 9.82667,8.65334 3.52,5.57333 3.52,13.05333 0,8.65333 -4.54667,14.66667 -4.4,5.86666 -10.85333,8.21333 v 0.58667 q 7.48,2.34667 12.61333,8.94667 5.13334,6.6 5.13334,16.28 0,8.50666 -4.10667,14.52 -4.10667,6.01333 -10.85333,9.24 -6.74667,3.22666 -14.81334,3.22666 z m 18.77333,-16.72 h 21.41333 q 5.86667,0 9.68,-3.22666 3.96,-3.22667 3.96,-9.38667 0,-5.86667 -3.66666,-9.82667 -3.52,-4.10666 -10.85334,-4.10666 h -20.53333 z m 0,-43.12 h 19.36 q 6.74667,0 9.97333,-3.66667 3.37334,-3.81333 3.37334,-8.8 0,-5.72 -3.52,-8.65333 -3.37334,-2.93333 -8.94667,-2.93333 h -20.24 z" />
      </g>
      <g
         id="flowRoot4535-3-2-8-1-2-5-5-7-2-4"
         style="font-style:normal;font-variant:normal;font-weight:normal;font-stretch:normal;font-size:146.66667175px;line-height:1.25;font-family:'Archivo Narrow';-inkscape-font-specification:'Archivo Narrow';letter-spacing:0px;word-spacing:0px;fill:#ffffff;fill-opacity:1;stroke:none"
         transform="matrix(0.10887855,0,0,0.10887855,198.08111,115.66025)"
         aria-label="H">
        <path
           id="path2557"
           style="font-style:normal;font-variant:normal;font-weight:bold;font-stretch:normal;font-size:146.66667175px;font-family:'Archivo Narrow';-inkscape-font-specification:'Archivo Narrow Bold';fill:#ffffff;fill-opacity:1"
           d="M 118.28438,265.63954 V 165.02621 h 18.77333 v 40.77333 h 31.68 v -40.77333 h 18.77333 v 100.61333 h -18.77333 v -43.12 h -31.68 v 43.12 z" />
      </g>
      <g
         id="flowRoot5711-3-3-1-1-6-0-6-5-15"
         style="font-style:normal;font-variant:normal;font-weight:normal;font-stretch:normal;font-size:40px;line-height:1.25;font-family:Calibri;-inkscape-font-specification:Calibri;letter-spacing:0px;word-spacing:0px;fill:#000000;fill-opacity:1;stroke:none"
         transform="matrix(0,-0.10887855,0.10887855,0,184.07687,641.52599)"
         aria-label="HORÃK">
        <path
           id="path2546"
           style="font-style:normal;font-variant:normal;font-weight:normal;font-stretch:normal;font-size:18.66666603px;font-family:'Archivo Narrow';-inkscape-font-specification:'Archivo Narrow';letter-spacing:5px;fill:#000000;fill-opacity:1"
           d="m 4578.0547,314.99414 v -12.80533 h 1.6427 v 5.50666 h 5.152 v -5.50666 h 1.6426 v 12.80533 h -1.6426 v -5.80533 h -5.152 v 5.80533 z" />
        <path
           id="path2548"
           style="font-style:normal;font-variant:normal;font-weight:normal;font-stretch:normal;font-size:18.66666603px;font-family:'Archivo Narrow';-inkscape-font-specification:'Archivo Narrow';letter-spacing:5px;fill:#000000;fill-opacity:1"
           d="m 4598.7496,315.21814 q -2.352,0 -3.696,-1.64267 -1.344,-1.66133 -1.344,-4.984 0,-3.34133 1.344,-4.984 1.344,-1.64266 3.696,-1.64266 2.352,0 3.696,1.64266 1.344,1.64267 1.344,4.984 0,3.32267 -1.344,4.984 -1.344,1.64267 -3.696,1.64267 z m 0,-1.512 q 1.5493,0 2.4267,-1.15733 0.896,-1.15734 0.896,-3.49067 v -0.93333 q 0,-2.33334 -0.896,-3.49067 -0.8774,-1.15733 -2.4267,-1.15733 -1.5307,0 -2.4267,1.15733 -0.896,1.15733 -0.896,3.49067 v 0.93333 q 0,2.33333 0.896,3.49067 0.896,1.15733 2.4267,1.15733 z" />
        <path
           id="path2550"
           style="font-style:normal;font-variant:normal;font-weight:normal;font-stretch:normal;font-size:18.66666603px;font-family:'Archivo Narrow';-inkscape-font-specification:'Archivo Narrow';letter-spacing:5px;fill:#000000;fill-opacity:1"
           d="m 4611.0235,314.99414 v -12.80533 h 5.152 q 1.8853,0 2.856,0.98933 0.9706,0.97067 0.9706,2.55733 0,1.19467 -0.5973,2.072 -0.5973,0.85867 -1.68,1.232 l 2.576,5.95467 h -1.8293 l -2.3707,-5.656 h -3.4347 v 5.656 z m 1.6426,-7.14933 h 3.4534 q 0.9893,0 1.568,-0.57867 0.5973,-0.57867 0.5973,-1.53067 0,-0.952 -0.56,-1.49333 -0.56,-0.56 -1.6053,-0.56 h -3.4534 z" />
        <path
           id="path2552"
           style="font-style:normal;font-variant:normal;font-weight:normal;font-stretch:normal;font-size:18.66666603px;font-family:'Archivo Narrow';-inkscape-font-specification:'Archivo Narrow';letter-spacing:5px;fill:#000000;fill-opacity:1"
           d="m 4625.745,314.99414 4.0693,-12.80533 h 2.1094 l 4.0693,12.80533 h -1.7733 l -0.8774,-2.856 h -5.0773 l -0.8773,2.856 z m 2.968,-4.34933 h 4.1627 l -1.736,-5.69334 q -0.056,-0.224 -0.1307,-0.56 -0.075,-0.336 -0.1307,-0.59733 -0.037,-0.26133 -0.037,-0.26133 h -0.075 q 0,0 -0.056,0.28 -0.037,0.26133 -0.112,0.59733 -0.056,0.336 -0.1306,0.54133 z m 0.8773,-9.66934 1.4187,-1.904 h 1.8667 l 0.019,0.056 -1.8293,1.848 z" />
        <path
           id="path2554"
           style="font-style:normal;font-variant:normal;font-weight:normal;font-stretch:normal;font-size:18.66666603px;font-family:'Archivo Narrow';-inkscape-font-specification:'Archivo Narrow';letter-spacing:5px;fill:#000000;fill-opacity:1"
           d="m 4642.2787,314.99414 v -12.80533 h 1.6426 v 6.776 l 5.0774,-6.776 h 1.8293 l -3.8453,5.17066 3.976,7.63467 h -1.8667 l -3.1173,-6.25333 -2.0534,2.27733 v 3.976 z" />
      </g>
    </g>
  </g>
</svg>
