<?xml version="1.0" encoding="UTF-8" standalone="no"?>
<!-- Created with Inkscape (http://www.inkscape.org/) -->

<svg
   xmlns:dc="http://purl.org/dc/elements/1.1/"
   xmlns:cc="http://creativecommons.org/ns#"
   xmlns:rdf="http://www.w3.org/1999/02/22-rdf-syntax-ns#"
   xmlns:svg="http://www.w3.org/2000/svg"
   xmlns="http://www.w3.org/2000/svg"
   xmlns:sodipodi="http://sodipodi.sourceforge.net/DTD/sodipodi-0.dtd"
   xmlns:inkscape="http://www.inkscape.org/namespaces/inkscape"
   width="29.265141mm"
   height="38.344765mm"
   viewBox="0 0 29.265141 38.344765"
   version="1.1"
   id="svg2621"
   inkscape:version="0.92.4 (5da689c313, 2019-01-14)"
   sodipodi:docname="logo-dark.svg">
  <defs
     id="defs2615" />
  <sodipodi:namedview
     id="base"
     pagecolor="#ffffff"
     bordercolor="#666666"
     borderopacity="1.0"
     inkscape:pageopacity="0.0"
     inkscape:pageshadow="2"
     inkscape:zoom="1.979899"
     inkscape:cx="56.945583"
     inkscape:cy="102.63079"
     inkscape:document-units="mm"
     inkscape:current-layer="layer1"
     showgrid="false"
     fit-margin-top="0"
     fit-margin-left="0"
     fit-margin-right="0"
     fit-margin-bottom="0"
     inkscape:window-width="2560"
     inkscape:window-height="1377"
     inkscape:window-x="1672"
     inkscape:window-y="-8"
     inkscape:window-maximized="1"
     inkscape:snap-bbox="true"
     inkscape:bbox-paths="true"
     inkscape:bbox-nodes="true"
     inkscape:snap-bbox-edge-midpoints="true"
     inkscape:snap-bbox-midpoints="true"
     inkscape:object-paths="true"
     inkscape:snap-intersection-paths="true"
     inkscape:snap-smooth-nodes="true"
     inkscape:snap-midpoints="true"
     inkscape:snap-object-midpoints="true"
     inkscape:snap-center="true"
     inkscape:snap-text-baseline="true"
     inkscape:snap-page="true" />
  <metadata
     id="metadata2618">
    <rdf:RDF>
      <cc:Work
         rdf:about="">
        <dc:format>image/svg+xml</dc:format>
        <dc:type
           rdf:resource="http://purl.org/dc/dcmitype/StillImage" />
        <dc:title></dc:title>
      </cc:Work>
    </rdf:RDF>
  </metadata>
  <g
     inkscape:label="Vrstva 1"
     inkscape:groupmode="layer"
     id="layer1"
     transform="translate(-102.54004,-31.387142)">
    <path
       style="opacity:1;fill:none;fill-opacity:1;stroke:#8b6220;stroke-width:0.38675866;stroke-linecap:square;stroke-linejoin:miter;stroke-miterlimit:2.29999995;stroke-dasharray:none;stroke-dashoffset:0;stroke-opacity:1;paint-order:normal"
       d="m 120.44347,46.947789 -8.85502,5.112451 -8.85503,-5.112451 0,-10.224901 8.85503,-5.112451 8.85502,5.112451 z"
       id="path4518-4-0-3-1-60-2-3-4-3-7-54-6-9-9-3-8-1-5-1-4-7" />
    <path
       style="opacity:1;fill:none;fill-opacity:1;stroke:#8b6220;stroke-width:0.38675866;stroke-linecap:square;stroke-linejoin:miter;stroke-miterlimit:2.29999995;stroke-dasharray:none;stroke-dashoffset:0;stroke-opacity:1;paint-order:normal"
       d="m 131.57281,64.352498 -8.85502,5.112451 -8.85503,-5.112451 0,-10.224901 8.85503,-5.112451 8.85502,5.112451 z"
       id="path4518-9-6-01-5-8-8-4-6-8-4-13-91-9-8-60-6-9-3-1-7-3-2" />
    <g
       aria-label="B"
       transform="matrix(0.1153203,0,0,0.1153203,104.86566,34.407842)"
       style="font-style:normal;font-variant:normal;font-weight:normal;font-stretch:normal;font-size:146.66667175px;line-height:1.25;font-family:'Archivo Narrow';-inkscape-font-specification:'Archivo Narrow';letter-spacing:0px;word-spacing:0px;fill:#8b6220;fill-opacity:1;stroke:none"
       id="flowRoot4535-6-3-5-6-9-2-8-2-8-6-4-64-60-0-3-8-0-7-1-3-4-1">
      <path
         d="M 118.28438,265.63954 V 165.02621 h 43.26666 q 7.92,0 14.08,3.22666 6.30667,3.08 9.82667,8.65334 3.52,5.57333 3.52,13.05333 0,8.65333 -4.54667,14.66667 -4.4,5.86666 -10.85333,8.21333 v 0.58667 q 7.48,2.34667 12.61333,8.94667 5.13334,6.6 5.13334,16.28 0,8.50666 -4.10667,14.52 -4.10667,6.01333 -10.85333,9.24 -6.74667,3.22666 -14.81334,3.22666 z m 18.77333,-16.72 h 21.41333 q 5.86667,0 9.68,-3.22666 3.96,-3.22667 3.96,-9.38667 0,-5.86667 -3.66666,-9.82667 -3.52,-4.10666 -10.85334,-4.10666 h -20.53333 z m 0,-43.12 h 19.36 q 6.74667,0 9.97333,-3.66667 3.37334,-3.81333 3.37334,-8.8 0,-5.72 -3.52,-8.65333 -3.37334,-2.93333 -8.94667,-2.93333 h -20.24 z"
         style="font-style:normal;font-variant:normal;font-weight:bold;font-stretch:normal;font-size:146.66667175px;font-family:'Archivo Narrow';-inkscape-font-specification:'Archivo Narrow Bold';fill:#8b6220;fill-opacity:1"
         id="path3259" />
    </g>
    <g
       aria-label="H"
       transform="matrix(0.1153203,0,0,0.1153203,93.956252,17.003082)"
       style="font-style:normal;font-variant:normal;font-weight:normal;font-stretch:normal;font-size:146.66667175px;line-height:1.25;font-family:'Archivo Narrow';-inkscape-font-specification:'Archivo Narrow';letter-spacing:0px;word-spacing:0px;fill:#8b6220;fill-opacity:1;stroke:none"
       id="flowRoot4535-3-2-8-2-1-6-6-9-0-8-7-21-50-2-5-8-8-4-4-5-9-2-9">
      <path
         d="M 118.28438,265.63954 V 165.02621 h 18.77333 v 40.77333 h 31.68 v -40.77333 h 18.77333 v 100.61333 h -18.77333 v -43.12 h -31.68 v 43.12 z"
         style="font-style:normal;font-variant:normal;font-weight:bold;font-stretch:normal;font-size:146.66667175px;font-family:'Archivo Narrow';-inkscape-font-specification:'Archivo Narrow Bold';fill:#8b6220;fill-opacity:1"
         id="path3256" />
    </g>
    <g
       aria-label="HORÁK"
       transform="matrix(0,-0.1153203,0.1153203,0,79.080874,573.98157)"
       style="font-style:normal;font-variant:normal;font-weight:normal;font-stretch:normal;font-size:40px;line-height:1.25;font-family:Calibri;-inkscape-font-specification:Calibri;letter-spacing:0px;word-spacing:0px;fill:#ffffff;fill-opacity:1;stroke:none"
       id="flowRoot5711-3-3-1-3-1-2-0-7-0-9-2-2-0-4-6-6-9-4-3">
      <path
         d="m 4578.0547,314.99414 v -12.80533 h 1.6427 v 5.50666 h 5.152 v -5.50666 h 1.6426 v 12.80533 h -1.6426 v -5.80533 h -5.152 v 5.80533 z"
         style="font-style:normal;font-variant:normal;font-weight:normal;font-stretch:normal;font-size:18.66666603px;font-family:'Archivo Narrow';-inkscape-font-specification:'Archivo Narrow';letter-spacing:5px;fill:#ffffff;fill-opacity:1"
         id="path3245" />
      <path
         d="m 4598.7496,315.21814 q -2.352,0 -3.696,-1.64267 -1.344,-1.66133 -1.344,-4.984 0,-3.34133 1.344,-4.984 1.344,-1.64266 3.696,-1.64266 2.352,0 3.696,1.64266 1.344,1.64267 1.344,4.984 0,3.32267 -1.344,4.984 -1.344,1.64267 -3.696,1.64267 z m 0,-1.512 q 1.5493,0 2.4267,-1.15733 0.896,-1.15734 0.896,-3.49067 v -0.93333 q 0,-2.33334 -0.896,-3.49067 -0.8774,-1.15733 -2.4267,-1.15733 -1.5307,0 -2.4267,1.15733 -0.896,1.15733 -0.896,3.49067 v 0.93333 q 0,2.33333 0.896,3.49067 0.896,1.15733 2.4267,1.15733 z"
         style="font-style:normal;font-variant:normal;font-weight:normal;font-stretch:normal;font-size:18.66666603px;font-family:'Archivo Narrow';-inkscape-font-specification:'Archivo Narrow';letter-spacing:5px;fill:#ffffff;fill-opacity:1"
         id="path3247" />
      <path
         d="m 4611.0235,314.99414 v -12.80533 h 5.152 q 1.8853,0 2.856,0.98933 0.9706,0.97067 0.9706,2.55733 0,1.19467 -0.5973,2.072 -0.5973,0.85867 -1.68,1.232 l 2.576,5.95467 h -1.8293 l -2.3707,-5.656 h -3.4347 v 5.656 z m 1.6426,-7.14933 h 3.4534 q 0.9893,0 1.568,-0.57867 0.5973,-0.57867 0.5973,-1.53067 0,-0.952 -0.56,-1.49333 -0.56,-0.56 -1.6053,-0.56 h -3.4534 z"
         style="font-style:normal;font-variant:normal;font-weight:normal;font-stretch:normal;font-size:18.66666603px;font-family:'Archivo Narrow';-inkscape-font-specification:'Archivo Narrow';letter-spacing:5px;fill:#ffffff;fill-opacity:1"
         id="path3249" />
      <path
         d="m 4625.745,314.99414 4.0693,-12.80533 h 2.1094 l 4.0693,12.80533 h -1.7733 l -0.8774,-2.856 h -5.0773 l -0.8773,2.856 z m 2.968,-4.34933 h 4.1627 l -1.736,-5.69334 q -0.056,-0.224 -0.1307,-0.56 -0.075,-0.336 -0.1307,-0.59733 -0.037,-0.26133 -0.037,-0.26133 h -0.075 q 0,0 -0.056,0.28 -0.037,0.26133 -0.112,0.59733 -0.056,0.336 -0.1306,0.54133 z m 0.8773,-9.66934 1.4187,-1.904 h 1.8667 l 0.019,0.056 -1.8293,1.848 z"
         style="font-style:normal;font-variant:normal;font-weight:normal;font-stretch:normal;font-size:18.66666603px;font-family:'Archivo Narrow';-inkscape-font-specification:'Archivo Narrow';letter-spacing:5px;fill:#ffffff;fill-opacity:1"
         id="path3251" />
      <path
         d="m 4642.2787,314.99414 v -12.80533 h 1.6426 v 6.776 l 5.0774,-6.776 h 1.8293 l -3.8453,5.17066 3.976,7.63467 h -1.8667 l -3.1173,-6.25333 -2.0534,2.27733 v 3.976 z"
         style="font-style:normal;font-variant:normal;font-weight:normal;font-stretch:normal;font-size:18.66666603px;font-family:'Archivo Narrow';-inkscape-font-specification:'Archivo Narrow';letter-spacing:5px;fill:#ffffff;fill-opacity:1"
         id="path3253" />
    </g>
    <path
       style="opacity:1;fill:#4b3511;fill-opacity:1;stroke:#4b3511;stroke-width:0.2832244;stroke-linecap:square;stroke-linejoin:miter;stroke-miterlimit:2.29999995;stroke-dasharray:none;stroke-dashoffset:0;stroke-opacity:1;paint-order:normal"
       d="m 120.49936,46.979937 -8.88295,5.128576 -8.88296,-5.128576 0,-10.257153 8.88296,-5.128576 8.88295,5.128576 z"
       id="path4518-4-0-3-1-6-5-3-5-0-1-7-61-3-4-1-7-5-0-4-1-2" />
    <path
       style="opacity:1;fill:#4b3511;fill-opacity:1;stroke:#4b3511;stroke-width:0.2832244;stroke-linecap:square;stroke-linejoin:miter;stroke-miterlimit:2.29999995;stroke-dasharray:none;stroke-dashoffset:0;stroke-opacity:1;paint-order:normal"
       d="m 131.66357,64.43981 -8.88295,5.128576 -8.88296,-5.128576 0,-10.257153 8.88296,-5.128576 8.88295,5.128576 z"
       id="path4518-9-6-01-5-8-5-1-5-5-1-8-82-74-8-9-2-2-0-2-7-3-8" />
    <g
       aria-label="B"
       transform="matrix(0.11568407,0,0,0.11568407,104.80252,34.330204)"
       style="font-style:normal;font-variant:normal;font-weight:normal;font-stretch:normal;font-size:146.66667175px;line-height:1.25;font-family:'Archivo Narrow';-inkscape-font-specification:'Archivo Narrow';letter-spacing:0px;word-spacing:0px;fill:#ffffff;fill-opacity:1;stroke:none"
       id="flowRoot4535-6-3-5-6-9-4-0-7-9-8-3-7-2-45-0-8-1-8-0-2-7-4">
      <path
         d="M 118.28438,265.63954 V 165.02621 h 43.26666 q 7.92,0 14.08,3.22666 6.30667,3.08 9.82667,8.65334 3.52,5.57333 3.52,13.05333 0,8.65333 -4.54667,14.66667 -4.4,5.86666 -10.85333,8.21333 v 0.58667 q 7.48,2.34667 12.61333,8.94667 5.13334,6.6 5.13334,16.28 0,8.50666 -4.10667,14.52 -4.10667,6.01333 -10.85333,9.24 -6.74667,3.22666 -14.81334,3.22666 z m 18.77333,-16.72 h 21.41333 q 5.86667,0 9.68,-3.22666 3.96,-3.22667 3.96,-9.38667 0,-5.86667 -3.66666,-9.82667 -3.52,-4.10666 -10.85334,-4.10666 h -20.53333 z m 0,-43.12 h 19.36 q 6.74667,0 9.97333,-3.66667 3.37334,-3.81333 3.37334,-8.8 0,-5.72 -3.52,-8.65333 -3.37334,-2.93333 -8.94667,-2.93333 h -20.24 z"
         style="font-style:normal;font-variant:normal;font-weight:bold;font-stretch:normal;font-size:146.66667175px;font-family:'Archivo Narrow';-inkscape-font-specification:'Archivo Narrow Bold';fill:#ffffff;fill-opacity:1"
         id="path3240"
         inkscape:connector-curvature="0" />
    </g>
    <g
       aria-label="H"
       transform="matrix(0.11568407,0,0,0.11568407,93.928656,16.941032)"
       style="font-style:normal;font-variant:normal;font-weight:normal;font-stretch:normal;font-size:146.66667175px;line-height:1.25;font-family:'Archivo Narrow';-inkscape-font-specification:'Archivo Narrow';letter-spacing:0px;word-spacing:0px;fill:#ffffff;fill-opacity:1;stroke:none"
       id="flowRoot4535-3-2-8-1-2-5-5-7-2-2-6-3-9-6-1-0-5-8-0-8-3">
      <path
         d="M 118.28438,265.63954 V 165.02621 h 18.77333 v 40.77333 h 31.68 v -40.77333 h 18.77333 v 100.61333 h -18.77333 v -43.12 h -31.68 v 43.12 z"
         style="font-style:normal;font-variant:normal;font-weight:bold;font-stretch:normal;font-size:146.66667175px;font-family:'Archivo Narrow';-inkscape-font-specification:'Archivo Narrow Bold';fill:#ffffff;fill-opacity:1"
         id="path3237" />
    </g>
    <g
       aria-label="HORÁK"
       transform="matrix(0,-0.11568407,0.11568407,0,79.049044,575.67631)"
       style="font-style:normal;font-variant:normal;font-weight:normal;font-stretch:normal;font-size:40px;line-height:1.25;font-family:Calibri;-inkscape-font-specification:Calibri;letter-spacing:0px;word-spacing:0px;fill:#4b3511;fill-opacity:1;stroke:none"
       id="flowRoot5711-3-3-1-1-6-0-6-5-8-53-8-1-9-7-4-1-2-6-9-5">
      <path
         d="m 4578.0547,314.99414 v -12.80533 h 1.6427 v 5.50666 h 5.152 v -5.50666 h 1.6426 v 12.80533 h -1.6426 v -5.80533 h -5.152 v 5.80533 z"
         style="font-style:normal;font-variant:normal;font-weight:normal;font-stretch:normal;font-size:18.66666603px;font-family:'Archivo Narrow';-inkscape-font-specification:'Archivo Narrow';letter-spacing:5px;fill:#4b3511;fill-opacity:1"
         id="path3226" />
      <path
         d="m 4598.7496,315.21814 q -2.352,0 -3.696,-1.64267 -1.344,-1.66133 -1.344,-4.984 0,-3.34133 1.344,-4.984 1.344,-1.64266 3.696,-1.64266 2.352,0 3.696,1.64266 1.344,1.64267 1.344,4.984 0,3.32267 -1.344,4.984 -1.344,1.64267 -3.696,1.64267 z m 0,-1.512 q 1.5493,0 2.4267,-1.15733 0.896,-1.15734 0.896,-3.49067 v -0.93333 q 0,-2.33334 -0.896,-3.49067 -0.8774,-1.15733 -2.4267,-1.15733 -1.5307,0 -2.4267,1.15733 -0.896,1.15733 -0.896,3.49067 v 0.93333 q 0,2.33333 0.896,3.49067 0.896,1.15733 2.4267,1.15733 z"
         style="font-style:normal;font-variant:normal;font-weight:normal;font-stretch:normal;font-size:18.66666603px;font-family:'Archivo Narrow';-inkscape-font-specification:'Archivo Narrow';letter-spacing:5px;fill:#4b3511;fill-opacity:1"
         id="path3228" />
      <path
         d="m 4611.0235,314.99414 v -12.80533 h 5.152 q 1.8853,0 2.856,0.98933 0.9706,0.97067 0.9706,2.55733 0,1.19467 -0.5973,2.072 -0.5973,0.85867 -1.68,1.232 l 2.576,5.95467 h -1.8293 l -2.3707,-5.656 h -3.4347 v 5.656 z m 1.6426,-7.14933 h 3.4534 q 0.9893,0 1.568,-0.57867 0.5973,-0.57867 0.5973,-1.53067 0,-0.952 -0.56,-1.49333 -0.56,-0.56 -1.6053,-0.56 h -3.4534 z"
         style="font-style:normal;font-variant:normal;font-weight:normal;font-stretch:normal;font-size:18.66666603px;font-family:'Archivo Narrow';-inkscape-font-specification:'Archivo Narrow';letter-spacing:5px;fill:#4b3511;fill-opacity:1"
         id="path3230" />
      <path
         d="m 4625.745,314.99414 4.0693,-12.80533 h 2.1094 l 4.0693,12.80533 h -1.7733 l -0.8774,-2.856 h -5.0773 l -0.8773,2.856 z m 2.968,-4.34933 h 4.1627 l -1.736,-5.69334 q -0.056,-0.224 -0.1307,-0.56 -0.075,-0.336 -0.1307,-0.59733 -0.037,-0.26133 -0.037,-0.26133 h -0.075 q 0,0 -0.056,0.28 -0.037,0.26133 -0.112,0.59733 -0.056,0.336 -0.1306,0.54133 z m 0.8773,-9.66934 1.4187,-1.904 h 1.8667 l 0.019,0.056 -1.8293,1.848 z"
         style="font-style:normal;font-variant:normal;font-weight:normal;font-stretch:normal;font-size:18.66666603px;font-family:'Archivo Narrow';-inkscape-font-specification:'Archivo Narrow';letter-spacing:5px;fill:#4b3511;fill-opacity:1"
         id="path3232" />
      <path
         d="m 4642.2787,314.99414 v -12.80533 h 1.6426 v 6.776 l 5.0774,-6.776 h 1.8293 l -3.8453,5.17066 3.976,7.63467 h -1.8667 l -3.1173,-6.25333 -2.0534,2.27733 v 3.976 z"
         style="font-style:normal;font-variant:normal;font-weight:normal;font-stretch:normal;font-size:18.66666603px;font-family:'Archivo Narrow';-inkscape-font-specification:'Archivo Narrow';letter-spacing:5px;fill:#4b3511;fill-opacity:1"
         id="path3234" />
    </g>
    <flowRoot
       xml:space="preserve"
       id="flowRoot4535-3-2-8-0-3-5-6-7-4-1-4-5"
       style="font-style:normal;font-variant:normal;font-weight:normal;font-stretch:normal;font-size:146.66667175px;line-height:1.25;font-family:'Archivo Narrow';-inkscape-font-specification:'Archivo Narrow';letter-spacing:0px;word-spacing:0px;fill:#4b3511;fill-opacity:1;stroke:none;"
       transform="matrix(0.10658406,0,0,0.10658406,110.01218,18.852178)"
       inkscape:export-filename="D:\Documents\HezkyBoudy - web\StyleGuide\SG2.png"
       inkscape:export-xdpi="300.01712"
       inkscape:export-ydpi="300.01712"><flowRegion
         id="flowRegion4537-9-4-4-4-4-2-2-3-3-3-3-7"
         style="font-style:normal;font-variant:normal;font-weight:normal;font-stretch:normal;font-size:146.66667175px;font-family:'Archivo Narrow';-inkscape-font-specification:'Archivo Narrow';fill:#4b3511;fill-opacity:1;"><rect
           id="rect4539-9-7-2-8-20-9-2-0-5-33-7-7"
           width="418.20963"
           height="201.78281"
           x="109.48474"
           y="134.61215"
           style="font-style:normal;font-variant:normal;font-weight:normal;font-stretch:normal;font-size:146.66667175px;font-family:'Archivo Narrow';-inkscape-font-specification:'Archivo Narrow';fill:#4b3511;fill-opacity:1;" /></flowRegion><flowPara
         id="flowPara4541-67-2-7-23-0-6-3-9-6-3-5-2"
         style="font-style:normal;font-variant:normal;font-weight:bold;font-stretch:normal;font-size:93.33333588px;font-family:'Archivo Narrow';-inkscape-font-specification:'Archivo Narrow Bold';letter-spacing:10px;fill:#4b3511;fill-opacity:1;">EZKÝ</flowPara></flowRoot>    <flowRoot
       xml:space="preserve"
       id="flowRoot4535-3-2-8-0-0-1-6-3-6-3-8-6-8"
       style="font-style:normal;font-variant:normal;font-weight:normal;font-stretch:normal;font-size:146.66667175px;line-height:1.25;font-family:'Archivo Narrow';-inkscape-font-specification:'Archivo Narrow';letter-spacing:0px;word-spacing:0px;fill:#4b3511;fill-opacity:1;stroke:none;"
       transform="matrix(0.10658406,0,0,0.10658406,121.70759,36.039557)"
       inkscape:export-filename="D:\Documents\HezkyBoudy - web\StyleGuide\SG2.png"
       inkscape:export-xdpi="300.01712"
       inkscape:export-ydpi="300.01712"><flowRegion
         id="flowRegion4537-9-4-4-4-1-4-10-7-1-3-7-9-7"
         style="font-style:normal;font-variant:normal;font-weight:normal;font-stretch:normal;font-size:146.66667175px;font-family:'Archivo Narrow';-inkscape-font-specification:'Archivo Narrow';fill:#4b3511;fill-opacity:1;"><rect
           id="rect4539-9-7-2-8-2-9-9-56-9-4-4-4-6"
           width="418.20963"
           height="201.78281"
           x="109.48474"
           y="134.61215"
           style="font-style:normal;font-variant:normal;font-weight:normal;font-stretch:normal;font-size:146.66667175px;font-family:'Archivo Narrow';-inkscape-font-specification:'Archivo Narrow';fill:#4b3511;fill-opacity:1;" /></flowRegion><flowPara
         id="flowPara4541-67-2-7-23-4-5-2-7-0-2-9-7-6"
         style="font-style:normal;font-variant:normal;font-weight:bold;font-stretch:normal;font-size:93.33333588px;font-family:'Archivo Narrow';-inkscape-font-specification:'Archivo Narrow Bold';letter-spacing:10px;fill:#4b3511;fill-opacity:1;">OUDY</flowPara></flowRoot>  </g>
</svg>
